<svg aria-hidden="true" style="position: absolute; width: 0; height: 0; overflow: hidden;"
    version="1.1" xmlns="http://www.w3.org/2000/svg" xmlns:xlink="http://www.w3.org/1999/xlink">
    <defs>
        <symbol id="icon-logo" viewBox="0 0 32 32">
            <path fill="#f6f6f6" style="fill: var(--color1, #f6f6f6)"
                d="M0 0l16.343 16.172 15.657 15.828v-32h-32z"></path>
            <path fill="#f6f6f6" style="fill: var(--color1, #f6f6f6)"
                d="M4.457 4.228l11.943 11.829 11.257 11.485h-23.2v-23.315z"></path>
            <path fill="#4f2ee8" style="fill: var(--color2, #4f2ee8)"
                d="M27.733 27.619l-11.944-11.829-11.256-11.485h23.2v23.315z"></path>
            <path fill="#4f2ee8" style="fill: var(--color2, #4f2ee8)"
                d="M9.257 9.028l13.6 13.601h-13.6v-13.6z"></path>
            <path fill="#f6f6f6" style="fill: var(--color1, #f6f6f6)"
                d="M9.257 9.028l13.6 13.601v-13.6h-13.6z"></path>
        </symbol>
        <symbol id="icon-switcher-light" viewBox="0 0 64 32">
            <path
                d="M0 16c0-8.837 7.163-16 16-16h32c8.837 0 16 7.163 16 16s-7.163 16-16 16h-32c-8.837 0-16-7.163-16-16z"></path>
        </symbol>
        <symbol id="icon-switcher-light-part2" viewBox="0 0 32 32">
            <path
                d="M14.769 24.615c6.118 0 11.077-4.959 11.077-11.077s-4.959-11.077-11.077-11.077v0c-6.118 0-11.077 4.959-11.077 11.077s4.959 11.077 11.077 11.077v0z"></path>
        </symbol>
        <symbol id="icon-switcher-dark" viewBox="0 0 64 32">
            <path
                d="M0 16c0-8.837 7.163-16 16-16h32c8.837 0 16 7.163 16 16s-7.163 16-16 16h-32c-8.837 0-16-7.163-16-16z"></path>
        </symbol>
        <symbol id="icon-switcher-dark-part2" viewBox="0 0 32 32">
            <path
                d="M14.769 24.615c6.118 0 11.077-4.959 11.077-11.077s-4.959-11.077-11.077-11.077v0c-6.118 0-11.077 4.959-11.077 11.077s4.959 11.077 11.077 11.077v0z"></path>
        </symbol>
        <symbol id="icon-mail" viewBox="0 0 32 32">
            <path stroke-linejoin="round" stroke-linecap="round" stroke-miterlimit="4"
                stroke-width="2.2857"
                d="M28.666 24l-8.857-8M12.191 16l-8.857 8M2.666 9.334l10.887 7.621c0.881 0.617 1.322 0.926 1.802 1.045 0.423 0.106 0.866 0.106 1.289 0 0.48-0.119 0.921-0.427 1.802-1.045l10.887-7.621M9.066 26.666h13.867c2.24 0 3.36 0 4.216-0.435 0.756-0.391 1.358-0.992 1.738-1.726l0.011-0.022c0.434-0.855 0.434-1.976 0.434-4.216v-8.533c0-2.24 0-3.36-0.434-4.217-0.391-0.756-0.992-1.357-1.726-1.737l-0.022-0.011c-0.857-0.435-1.977-0.435-4.217-0.435h-13.865c-2.24 0-3.36 0-4.216 0.435-0.756 0.391-1.358 0.992-1.738 1.726l-0.010 0.022c-0.434 0.855-0.434 1.975-0.434 4.216v8.533c0 2.24 0 3.36 0.434 4.217 0.391 0.756 0.992 1.357 1.726 1.737l0.022 0.011c0.856 0.435 1.977 0.435 4.217 0.435z"></path>
        </symbol>
        <symbol id="icon-lock" viewBox="0 0 32 32">
            <path stroke-linejoin="round" stroke-linecap="round" stroke-miterlimit="4"
                stroke-width="2.2857"
                d="M22.666 14.666v-4c0-3.682-2.985-6.666-6.666-6.666s-6.666 2.985-6.666 6.666v0 4M10.4 28h11.2c2.24 0 3.36 0 4.216-0.435 0.756-0.391 1.358-0.992 1.738-1.726l0.011-0.022c0.435-0.856 0.435-1.976 0.435-4.216v-0.534c0-2.24 0-3.36-0.435-4.216-0.391-0.756-0.992-1.358-1.726-1.738l-0.022-0.011c-0.856-0.434-1.976-0.434-4.216-0.434h-11.2c-2.24 0-3.36 0-4.216 0.434-0.756 0.391-1.358 0.992-1.738 1.726l-0.011 0.022c-0.435 0.857-0.435 1.977-0.435 4.217v0.533c0 2.24 0 3.36 0.435 4.216 0.391 0.756 0.992 1.358 1.726 1.738l0.022 0.011c0.856 0.435 1.976 0.435 4.216 0.435z"></path>
        </symbol>
        <symbol id="icon-x-close" viewBox="0 0 32 32">
            <path stroke-linejoin="round" stroke-linecap="round" stroke-miterlimit="4"
                stroke-width="3.4286" d="M24 8l-16 16M8 8l16 16"></path>
        </symbol>
        <symbol id="icon-shop-list-delete" viewBox="0 0 32 32">
            <path stroke-linejoin="round" stroke-linecap="round" stroke-miterlimit="4"
                stroke-width="2.9091"
                d="M12 4h8M4 8h24M25.334 8l-0.935 14.026c-0.141 2.103-0.211 3.156-0.665 3.953-0.405 0.703-0.997 1.259-1.707 1.61l-0.023 0.010c-0.828 0.4-1.881 0.4-3.99 0.4h-4.026c-2.109 0-3.162 0-3.99-0.4-0.734-0.361-1.326-0.917-1.721-1.601l-0.010-0.019c-0.454-0.797-0.524-1.85-0.665-3.953l-0.935-14.026M13.334 14v6.666M18.666 14v6.666"></path>
        </symbol>
        <symbol id="icon-scroll-up" viewBox="0 0 32 32">
            <path
                d="M4.5 19.6l11.2-11.233c0.133-0.133 0.277-0.227 0.433-0.283 0.146-0.053 0.314-0.084 0.489-0.084 0.004 0 0.008 0 0.011 0h-0.001c0.177 0 0.344 0.028 0.5 0.084 0.17 0.064 0.315 0.16 0.433 0.282l11.234 11.234c0.311 0.311 0.467 0.7 0.467 1.167s-0.167 0.867-0.5 1.2c-0.292 0.308-0.705 0.5-1.162 0.5-0.002 0-0.003 0-0.005 0h0c-0.001 0-0.003 0-0.005 0-0.457 0-0.87-0.192-1.161-0.499l-0.001-0.001-9.8-9.8-9.8 9.8c-0.311 0.311-0.693 0.467-1.149 0.467s-0.851-0.167-1.184-0.5c-0.308-0.292-0.5-0.705-0.5-1.162 0-0.002 0-0.003 0-0.005v0c0-0.001 0-0.003 0-0.005 0-0.457 0.192-0.87 0.499-1.161l0.001-0.001z"></path>
        </symbol>
        <symbol id="icon-menu" viewBox="0 0 32 32">
            <path stroke-linejoin="round" stroke-linecap="round" stroke-miterlimit="4"
                stroke-width="2.2857"
                d="M22.666 13.334h-18.666M28 8h-24M28 18.666h-24M22.666 24h-18.666"></path>
        </symbol>
        <symbol id="icon-sing-up-align-left" viewBox="0 0 32 32" width="20" height="20">
            <path stroke-linejoin="round" stroke-linecap="round" stroke-miterlimit="4"
                stroke-width="3.2" d="M5.333 16h21.334M26.667 16l-8-8M26.667 16l-8 8"></path>
        </symbol>
        <symbol id="icon-switcher-light" viewBox="0 0 50 32">
            <path
                d="M2.37 14.222c0-6.546 5.306-11.852 11.852-11.852h23.704c6.546 0 11.852 5.306 11.852 11.852s-5.306 11.852-11.852 11.852h-23.704c-6.546 0-11.852-5.306-11.852-11.852z"></path>
            <path fill="#fff" style="fill: var(--color1, #fff)"
                d="M14.222 24.889c5.891 0 10.667-4.776 10.667-10.667s-4.776-10.667-10.667-10.667v0c-5.891 0-10.667 4.776-10.667 10.667s4.776 10.667 10.667 10.667v0z"></path>
        </symbol>
        <symbol id="icon-switcher-dark" viewBox="0 0 52 32">
            <path
                d="M0 14.222c0-6.546 5.306-11.852 11.852-11.852h23.704c6.546 0 11.852 5.306 11.852 11.852s-5.306 11.852-11.852 11.852h-23.704c-6.546 0-11.852-5.306-11.852-11.852z"></path>
            <path fill="#fff" style="fill: var(--color1, #fff)"
                d="M35.556 24.889c5.891 0 10.667-4.776 10.667-10.667s-4.776-10.667-10.667-10.667v0c-5.891 0-10.667 4.776-10.667 10.667s4.776 10.667 10.667 10.667v0z"></path>
        </symbol>
        <symbol id="icon-support-ukr-logo" viewBox="0 0 20 32">
            <path
                d="M9.005 30.888c-1.738-1.269-2.974-3.137-3.405-5.296l-0.009-0.055h-5.591v-23.117c2.991 1.443 5.153 4.6 5.388 7.876l0.845 6.493-0.407-0.045c-0.893 0-1.676 0.812-1.676 1.608 0 0.752 0.595 1.383 1.379 1.548l1.018 0.226c1.675-3.051 2.63-6.042 2.63-8.973 0-2.646-0.36-5.291-0.422-7.997 0-1.202 0.485-2.3 1.253-3.156 0.783 0.857 1.253 1.954 1.253 3.156 0 2.706-0.423 5.351-0.423 7.997 0 2.93 0.955 5.922 2.631 8.973l1.018-0.226c0.783-0.165 1.378-0.811 1.378-1.548 0-0.811-0.783-1.608-1.675-1.608l-0.423 0.060 0.845-6.493c0.423-3.277 2.398-6.448 5.388-7.876v23.117h-5.576c-0.422 2.18-1.613 4.148-3.414 5.35-0.423 0.286-0.783 0.632-1.018 1.098-0.22-0.466-0.58-0.812-0.987-1.112zM2.647 17.556c0.235-0.857 0.893-1.609 1.738-2.075l-0.658-5.35c-0.246-1.699-0.975-3.195-2.043-4.382l0.007 0.008v11.783h0.956v0.015zM5.466 23.929c0-0.812 0.125-1.548 0.298-2.3l-0.784-0.18c-1.143-0.346-2.036-1.203-2.333-2.3h-0.957v4.78h3.775zM9.178 23.929c0-0.977-0.783-1.834-1.801-1.954-0.173 0.63-0.298 1.262-0.298 1.954h2.099zM9.178 25.552h-1.864c0.298 1.262 0.955 2.42 1.864 3.397v-3.397zM11.808 20.547c-0.72-1.263-1.377-2.585-1.8-3.968-0.423 1.383-1.080 2.705-1.801 3.968 0.72 0.165 1.315 0.631 1.8 1.157 0.486-0.526 1.082-0.992 1.802-1.157zM12.952 23.929c0-0.692-0.125-1.323-0.297-1.954-1.018 0.12-1.801 0.977-1.801 1.954h2.098zM12.717 25.552h-1.863v3.397c0.908-0.992 1.566-2.135 1.863-3.397zM18.34 23.929v-4.78h-0.956c-0.297 1.097-1.206 1.954-2.333 2.3l-0.783 0.18c0.172 0.752 0.297 1.488 0.297 2.3h3.775zM18.34 17.556v-11.8c-1.080 1.203-1.864 2.706-2.036 4.375l-0.658 5.35c0.846 0.466 1.504 1.203 1.738 2.075h0.956z"></path>
        </symbol>
        <symbol id="icon-support-ukr-scroll-down" viewBox="0 0 32 32">
            <path
                d="M15.055 17.868c0.241 0.243 0.576 0.394 0.945 0.394s0.704-0.15 0.945-0.393l0-0 6.109-6.121c0.241-0.243 0.576-0.393 0.945-0.393 0.736 0 1.333 0.597 1.333 1.333 0 0.367-0.148 0.699-0.388 0.94l-6.119 6.121c-0.724 0.723-1.723 1.169-2.826 1.169s-2.103-0.447-2.826-1.169l-6.121-6.121c-0.239-0.241-0.387-0.573-0.387-0.94 0-0.737 0.597-1.334 1.334-1.334 0.37 0 0.705 0.151 0.947 0.394l0 0 6.106 6.119z"></path>
        </symbol>
        <symbol id="icon-support-ukr-scroll-up" viewBox="0 0 32 32">
            <path
                d="M15.055 14.134c0.242-0.243 0.576-0.393 0.945-0.393s0.704 0.15 0.945 0.393l0 0 6.109 6.119c0.241 0.243 0.576 0.393 0.945 0.393 0.736 0 1.333-0.597 1.333-1.333 0-0.367-0.148-0.699-0.388-0.94l-6.119-6.121c-0.724-0.723-1.723-1.169-2.826-1.169s-2.103 0.447-2.826 1.169l-6.121 6.121c-0.239 0.241-0.387 0.573-0.387 0.94 0 0.737 0.597 1.334 1.334 1.334 0.37 0 0.705-0.151 0.947-0.394l0-0 6.106-6.119z"></path>
        </symbol>
        <symbol id="icon-favicon" viewBox="0 0 30 32">
            <path
                d="M29.393 10.569c-0.561-0.309-1.226-0.607-1.916-0.852l-0.098-0.030v17.419c-1.421-0.564-3.067-0.894-4.789-0.898h-0.002c-2.601 0-5.175 0.781-7.529 2.287v-17.518c-2.217-1.347-4.777-2.143-7.529-2.143-2.451 0-4.764 0.637-6.805 1.737-0.452 0.232-0.725 0.738-0.725 1.274v17.491c0 0.84 0.644 1.433 1.369 1.433 0.218 0 0.438-0.057 0.657-0.173 1.656-0.913 3.518-1.492 5.503-1.492 2.833 0 5.449 1.188 7.529 2.896 2.080-1.708 4.696-2.896 7.529-2.896 1.986 0 3.847 0.58 5.503 1.506 0.219 0.116 0.439 0.174 0.657 0.174 0.712 0 1.369-0.594 1.369-1.433v-17.506c0-0.536-0.273-1.043-0.725-1.274zM12.32 27.106c-1.421-0.564-3.067-0.894-4.789-0.898h-0.002c-1.628 0-3.231 0.304-4.791 0.898v-14.349c1.405-0.65 3.049-1.030 4.782-1.030 0.003 0 0.006 0 0.010 0h-0c1.642 0 3.272 0.362 4.791 1.043v14.336zM24.643 3.765l-6.845 7.24v13.756l6.845-6.516v-14.48z"></path>
        </symbol>
        <symbol id="icon-user" viewBox="0 0 32 32">
            <path
                d="M5.334 29.334c0.107-5.81 4.841-10.478 10.666-10.478s10.56 4.669 10.666 10.468l0 0.010h-21.332zM16 17.334c-0.001 0-0.001 0-0.002 0-4.417 0-7.998-3.581-7.998-7.998 0-0.001 0-0.001 0-0.002v0c0-0.001 0-0.001 0-0.002 0-4.417 3.581-7.998 7.998-7.998 0.001 0 0.001 0 0.002 0h-0c0 0 0.001 0 0.002 0 4.417 0 7.998 3.581 7.998 7.998 0 0.001 0 0.001 0 0.002v-0c0 0.001 0 0.001 0 0.002 0 4.417-3.581 7.998-7.998 7.998-0.001 0-0.001 0-0.002 0h0z"></path>
        </symbol>
        <symbol id="icon-arrow-narrow-right" viewBox="0 0 32 32">
            <path fill="none" stroke="#eac645" style="stroke: var(--color1, #eac645)"
                stroke-linejoin="round" stroke-linecap="round" stroke-miterlimit="4"
                stroke-width="3.2" d="M5.333 16h21.333M26.667 16l-8-8M26.667 16l-8 8"></path>
        </symbol>

        <symbol id="menu-burger" viewBox="0 0 28 28" fill="none">
            <path d="M19.8333 11.6667H3.5" stroke-width="2" stroke-linecap="round"
                stroke-linejoin="round" />
            <path d="M24.5 7H3.5" stroke-width="2" stroke-linecap="round" stroke-linejoin="round" />
            <path d="M24.5 16.3333H3.5" stroke-width="2" stroke-linecap="round"
                stroke-linejoin="round" />
            <path d="M19.8333 21H3.5" stroke-width="2" stroke-linecap="round"
                stroke-linejoin="round" />
        </symbol>

        <symbol id="sign-up-icon" viewBox="0 0 20 20" fill="none">
            <path
                d="M3.33325 10H16.6666M16.6666 10L11.6666 5M16.6666 10L11.6666 15"
                stroke="#EAC645"
                stroke-width="2"
                stroke-linecap="round"
                stroke-linejoin="round"
            />
        </symbol>

        <symbol id="basket" viewBox="0 0 20 20">
            <path
                d="M15.8335 5.83335H13.3335V5.00002C13.3335 4.11596 12.9823 3.26812 12.3572 2.643C11.7321 2.01788 10.8842 1.66669 10.0002 1.66669C9.11611 1.66669 8.26826 2.01788 7.64314 2.643C7.01802 3.26812 6.66683 4.11596 6.66683 5.00002V5.83335H4.16683C3.94582 5.83335 3.73385 5.92115 3.57757 6.07743C3.42129 6.23371 3.3335 6.44567 3.3335 6.66669V15.8334C3.3335 16.4964 3.59689 17.1323 4.06573 17.6011C4.53457 18.07 5.17045 18.3334 5.8335 18.3334H14.1668C14.8299 18.3334 15.4658 18.07 15.9346 17.6011C16.4034 17.1323 16.6668 16.4964 16.6668 15.8334V6.66669C16.6668 6.44567 16.579 6.23371 16.4227 6.07743C16.2665 5.92115 16.0545 5.83335 15.8335 5.83335ZM8.33349 5.00002C8.33349 4.55799 8.50909 4.13407 8.82165 3.82151C9.13421 3.50895 9.55813 3.33335 10.0002 3.33335C10.4422 3.33335 10.8661 3.50895 11.1787 3.82151C11.4912 4.13407 11.6668 4.55799 11.6668 5.00002V5.83335H8.33349V5.00002ZM15.0002 15.8334C15.0002 16.0544 14.9124 16.2663 14.7561 16.4226C14.5998 16.5789 14.3878 16.6667 14.1668 16.6667H5.8335C5.61248 16.6667 5.40052 16.5789 5.24424 16.4226C5.08796 16.2663 5.00016 16.0544 5.00016 15.8334V7.50002H6.66683V8.33335C6.66683 8.55437 6.75463 8.76633 6.91091 8.92261C7.06719 9.07889 7.27915 9.16669 7.50016 9.16669C7.72117 9.16669 7.93314 9.07889 8.08942 8.92261C8.2457 8.76633 8.33349 8.55437 8.33349 8.33335V7.50002H11.6668V8.33335C11.6668 8.55437 11.7546 8.76633 11.9109 8.92261C12.0672 9.07889 12.2791 9.16669 12.5002 9.16669C12.7212 9.16669 12.9331 9.07889 13.0894 8.92261C13.2457 8.76633 13.3335 8.55437 13.3335 8.33335V7.50002H15.0002V15.8334Z"
            />
        </symbol>


    </defs>
</svg>