<svg xmlns="http://www.w3.org/2000/svg" width="32" height="34" fill="none">
  <path fill="#4F2EE8" d="M31.23 11.23a14.908 14.908 0 0 0-2.14-.938V28.8a14.236 14.236 0 0 0-5.09-.954c-2.764 0-5.498.83-8 2.43V11.663c-2.356-1.431-5.076-2.277-8-2.277-2.604 0-5.062.677-7.23 1.846-.48.246-.77.784-.77 1.354v18.584c0 .893.684 1.523 1.455 1.523.232 0 .465-.061.698-.184 1.76-.97 3.738-1.585 5.847-1.585 3.01 0 5.79 1.262 8 3.077 2.21-1.815 4.99-3.077 8-3.077 2.11 0 4.087.616 5.847 1.6.233.123.466.185.698.185.757 0 1.455-.631 1.455-1.523v-18.6c0-.57-.29-1.108-.77-1.354ZM13.09 28.8A14.236 14.236 0 0 0 8 27.846c-1.73 0-3.433.323-5.09.954V13.554A12.343 12.343 0 0 1 8 12.46c1.745 0 3.476.385 5.09 1.108V28.8ZM26.183 4l-7.273 7.692v14.616l7.273-6.923V4Z"/>
</svg>
